# Blender v2.79 (sub 0) OBJ File: ''
# www.blender.org
mtllib yasi.mtl
o n000_object_00CE8790.002_meshId2_name
v 1.200003 59.000000 0.000005
v 1.200000 -0.000000 -0.000000
v 0.000003 59.000000 1.200005
v 1.200000 -0.000000 -0.000000
v 0.000000 -0.000000 1.200000
v 0.000003 59.000000 1.200005
v 0.000003 59.000000 1.200005
v 0.000000 -0.000000 1.200000
v -1.199997 59.000000 0.000005
v 0.000000 -0.000000 1.200000
v -1.200000 0.000000 0.000000
v -1.199997 59.000000 0.000005
v -1.199997 59.000000 0.000005
v -1.200000 0.000000 0.000000
v 0.000002 59.000000 -1.199995
v -1.200000 0.000000 0.000000
v -0.000000 0.000000 -1.200000
v 0.000002 59.000000 -1.199995
v 0.000002 59.000000 -1.199995
v -0.000000 0.000000 -1.200000
v 1.200003 59.000000 0.000005
v 1.200000 -0.000000 -0.000000
v 1.200003 59.000000 0.000005
v -0.000000 0.000000 -1.200000
vt 1.000000 5.000000
vt 0.828125 0.003906
vt 0.828125 5.000000
vt 1.000000 5.000000
vt 1.000000 0.003906
vt 0.828125 0.003906
vt 0.828125 5.000000
vt 1.000000 0.003906
vt 1.000000 5.000000
vt 0.828125 5.000000
vt 0.828125 0.003906
vt 1.000000 0.003906
vt 1.000000 5.000000
vt 0.828125 0.003906
vt 0.828125 5.000000
vt 1.000000 5.000000
vt 1.000000 0.003906
vt 0.828125 0.003906
vt 0.828125 5.000000
vt 1.000000 0.003906
vt 1.000000 5.000000
vt 1.000000 0.003906
vt 0.828125 5.000000
vt 0.828125 0.003906
vn 0.7071 0.0000 0.7071
vn -0.7071 0.0000 0.7071
vn -0.7071 0.0000 -0.7071
vn 0.7071 0.0000 -0.7071
usemtl material_3_0
s 1
f 3/1/1 2/2/1 1/3/1
f 6/4/1 5/5/1 4/6/1
f 9/7/2 8/8/2 7/9/2
f 12/10/2 11/11/2 10/12/2
f 15/13/3 14/14/3 13/15/3
f 18/16/3 17/17/3 16/18/3
f 21/19/4 20/20/4 19/21/4
f 24/22/4 23/23/4 22/24/4
o n000_object_00CE8790.001_meshId1_name
v 0.000003 58.000000 0.000005
v 0.000002 61.000000 -3.707994
v -3.211220 61.000000 -1.853994
v -3.211220 61.000000 -1.853994
v 0.000002 69.000000 -3.707993
v -3.211219 69.000000 -1.853993
v 0.000002 69.000000 -3.707993
v -3.211220 61.000000 -1.853994
v 0.000002 61.000000 -3.707994
v 0.000003 71.000000 0.000006
v -3.211219 69.000000 -1.853993
v 0.000002 69.000000 -3.707993
v 0.000003 58.000000 0.000005
v -3.211220 61.000000 -1.853994
v -3.211218 61.000000 1.854006
v -3.211218 61.000000 1.854006
v -3.211219 69.000000 -1.853993
v -3.211218 69.000000 1.854007
v -3.211219 69.000000 -1.853993
v -3.211218 61.000000 1.854006
v -3.211220 61.000000 -1.853994
v 0.000003 71.000000 0.000006
v -3.211218 69.000000 1.854007
v -3.211219 69.000000 -1.853993
v 0.000003 58.000000 0.000005
v -3.211218 61.000000 1.854006
v 0.000004 61.000000 3.708005
v 0.000004 61.000000 3.708005
v -3.211218 69.000000 1.854007
v 0.000005 69.000000 3.708006
v -3.211218 69.000000 1.854007
v 0.000004 61.000000 3.708005
v -3.211218 61.000000 1.854006
v 0.000003 71.000000 0.000006
v 0.000005 69.000000 3.708006
v -3.211218 69.000000 1.854007
v 0.000003 58.000000 0.000005
v 0.000004 61.000000 3.708005
v 3.211226 61.000000 1.854004
v 3.211226 61.000000 1.854004
v 0.000005 69.000000 3.708006
v 3.211226 69.000000 1.854005
v 0.000005 69.000000 3.708006
v 3.211226 61.000000 1.854004
v 0.000004 61.000000 3.708005
v 0.000003 71.000000 0.000006
v 3.211226 69.000000 1.854005
v 0.000005 69.000000 3.708006
v 0.000003 58.000000 0.000005
v 3.211226 61.000000 1.854004
v 3.211224 61.000000 -1.853996
v 3.211224 61.000000 -1.853996
v 3.211226 69.000000 1.854005
v 3.211225 69.000000 -1.853995
v 3.211226 69.000000 1.854005
v 3.211224 61.000000 -1.853996
v 3.211226 61.000000 1.854004
v 0.000003 71.000000 0.000006
v 3.211225 69.000000 -1.853995
v 3.211226 69.000000 1.854005
v 0.000003 58.000000 0.000005
v 3.211224 61.000000 -1.853996
v 0.000002 61.000000 -3.707994
v 0.000002 61.000000 -3.707994
v 3.211225 69.000000 -1.853995
v 0.000002 69.000000 -3.707993
v 3.211225 69.000000 -1.853995
v 0.000002 61.000000 -3.707994
v 3.211224 61.000000 -1.853996
v 0.000003 71.000000 0.000006
v 0.000002 69.000000 -3.707993
v 3.211225 69.000000 -1.853995
vt 0.546875 0.457031
vt 0.265625 0.457031
vt 0.406250 0.082031
vt 0.546875 0.972656
vt 0.265625 0.972656
vt 0.546875 0.238281
vt 0.265625 0.238281
vt 0.546875 0.238281
vt 0.265625 0.972656
vt 0.546875 0.285156
vt 0.265625 0.285156
vt 0.406250 0.003906
vt 0.828125 0.457031
vt 0.546875 0.457031
vt 0.687500 0.082031
vt 0.828125 0.972656
vt 0.546875 0.972656
vt 0.828125 0.238281
vt 0.546875 0.238281
vt 0.828125 0.238281
vt 0.546875 0.972656
vt 0.828125 0.285156
vt 0.546875 0.285156
vt 0.687500 0.003906
vt 0.546875 0.457031
vt 0.265625 0.457031
vt 0.406250 0.082031
vt 0.546875 0.972656
vt 0.265625 0.972656
vt 0.546875 0.238281
vt 0.265625 0.238281
vt 0.546875 0.238281
vt 0.265625 0.972656
vt 0.546875 0.285156
vt 0.265625 0.285156
vt 0.406250 0.003906
vt 0.828125 0.457031
vt 0.546875 0.457031
vt 0.687500 0.082031
vt 0.828125 0.972656
vt 0.546875 0.972656
vt 0.828125 0.238281
vt 0.546875 0.238281
vt 0.828125 0.238281
vt 0.546875 0.972656
vt 0.828125 0.285156
vt 0.546875 0.285156
vt 0.687500 0.003906
vt 0.546875 0.457031
vt 0.265625 0.457031
vt 0.406250 0.082031
vt 0.546875 0.972656
vt 0.265625 0.972656
vt 0.546875 0.238281
vt 0.265625 0.238281
vt 0.546875 0.238281
vt 0.265625 0.972656
vt 0.546875 0.285156
vt 0.265625 0.285156
vt 0.406250 0.003906
vt 0.828125 0.457031
vt 0.546875 0.457031
vt 0.687500 0.082031
vt 0.828125 0.972656
vt 0.546875 0.972656
vt 0.828125 0.238281
vt 0.546875 0.238281
vt 0.828125 0.238281
vt 0.546875 0.972656
vt 0.828125 0.285156
vt 0.546875 0.285156
vt 0.687500 0.003906
vn -0.3413 -0.7307 -0.5912
vn -0.5000 0.0000 -0.8660
vn -0.2643 0.8488 -0.4578
vn -0.6826 -0.7307 0.0000
vn -1.0000 0.0000 0.0000
vn -0.5286 0.8488 0.0000
vn -0.3413 -0.7307 0.5912
vn -0.5000 0.0000 0.8660
vn -0.2643 0.8488 0.4578
vn 0.3413 -0.7307 0.5912
vn 0.5000 0.0000 0.8660
vn 0.2643 0.8488 0.4578
vn 0.6826 -0.7307 0.0000
vn 1.0000 0.0000 0.0000
vn 0.5286 0.8488 0.0000
vn 0.3413 -0.7307 -0.5912
vn 0.5000 0.0000 -0.8660
vn 0.2643 0.8488 -0.4578
usemtl material_2_0
s 1
f 27/25/5 26/26/5 25/27/5
f 30/28/6 29/29/6 28/30/6
f 33/31/6 32/32/6 31/33/6
f 36/34/7 35/35/7 34/36/7
f 39/37/8 38/38/8 37/39/8
f 42/40/9 41/41/9 40/42/9
f 45/43/9 44/44/9 43/45/9
f 48/46/10 47/47/10 46/48/10
f 51/49/11 50/50/11 49/51/11
f 54/52/12 53/53/12 52/54/12
f 57/55/12 56/56/12 55/57/12
f 60/58/13 59/59/13 58/60/13
f 63/61/14 62/62/14 61/63/14
f 66/64/15 65/65/15 64/66/15
f 69/67/15 68/68/15 67/69/15
f 72/70/16 71/71/16 70/72/16
f 75/73/17 74/74/17 73/75/17
f 78/76/18 77/77/18 76/78/18
f 81/79/18 80/80/18 79/81/18
f 84/82/19 83/83/19 82/84/19
f 87/85/20 86/86/20 85/87/20
f 90/88/21 89/89/21 88/90/21
f 93/91/21 92/92/21 91/93/21
f 96/94/22 95/95/22 94/96/22
o n000_object_00CE8790_meshId0_name
v 4.119998 73.500000 -19.569992
v -4.120002 74.000000 -19.569992
v -0.000003 65.500000 -22.659992
v -4.120002 74.000000 -19.569992
v 5.150000 78.000000 -9.784993
v -5.149999 78.500000 -9.784991
v 5.150000 78.000000 -9.784993
v -4.120002 74.000000 -19.569992
v 4.119998 73.500000 -19.569992
v 0.000003 70.500000 0.000006
v -5.149999 78.500000 -9.784991
v 5.150000 78.000000 -9.784993
v -16.751356 65.000000 10.924805
v -10.924796 65.500000 16.751364
v -11.653116 56.500000 11.653123
v -5.098236 72.500000 12.381445
v -10.924796 65.500000 16.751364
v -16.751356 65.000000 10.924805
v 0.000003 69.500000 0.000006
v -5.098236 72.500000 12.381445
v -12.381433 72.000000 5.098246
v -10.196477 65.000000 -16.023031
v -16.023035 65.500000 -10.196471
v -12.017276 57.500000 -12.017271
v -11.653114 72.500000 -4.369911
v -16.023035 65.500000 -10.196471
v -10.196477 65.000000 -16.023031
v 0.000003 69.500000 0.000006
v -11.653114 72.500000 -4.369911
v -4.369916 72.000000 -11.653111
v 16.023041 67.000000 -10.196475
v 10.196478 67.500000 -16.023035
v 11.288959 57.500000 -11.288955
v 3.641600 74.000000 -10.924793
v 10.196478 67.500000 -16.023035
v 16.023041 67.000000 -10.196475
v 0.000003 69.500000 0.000006
v 3.641600 74.000000 -10.924793
v 10.924802 73.500000 -3.641594
v 10.560644 65.000000 16.387201
v 16.387201 65.500000 10.560641
v 12.745602 57.500000 12.745600
v 10.924803 73.500000 3.641604
v 16.387201 65.500000 10.560641
v 10.560644 65.000000 16.387201
v 0.000003 69.500000 0.000006
v 10.924803 73.500000 3.641604
v 3.641604 73.000000 10.924805
v -18.024996 73.500000 -4.119989
v -18.024994 74.000000 4.120009
v -21.629995 65.000000 0.000009
v -18.024994 74.000000 4.120009
v -6.179996 76.500000 -5.149992
v -6.179995 77.000000 5.150008
v -6.179996 76.500000 -5.149992
v -18.024994 74.000000 4.120009
v -18.024996 73.500000 -4.119989
v 0.000003 70.500000 0.000006
v -6.179995 77.000000 5.150008
v -6.179996 76.500000 -5.149992
v 19.570002 71.000000 4.120002
v 19.570000 71.500000 -4.119998
v 21.629999 61.500000 0.000001
v 19.570000 71.500000 -4.119998
v 7.210003 76.500000 5.150006
v 7.210001 77.000000 -5.149994
v 7.210003 76.500000 5.150006
v 19.570000 71.500000 -4.119998
v 19.570002 71.000000 4.120002
v 0.000003 70.500000 0.000006
v 7.210001 77.000000 -5.149994
v 7.210003 76.500000 5.150006
v -4.119994 72.500000 18.540005
v 4.120006 73.000000 18.540005
v 0.000006 64.500000 21.630003
v 4.120006 73.000000 18.540005
v -5.149995 77.000000 10.300007
v 5.150005 77.500000 10.300005
v -5.149995 77.000000 10.300007
v 4.120006 73.000000 18.540005
v -4.119994 72.500000 18.540005
v 0.000003 70.500000 0.000006
v 5.150005 77.500000 10.300005
v -5.149995 77.000000 10.300007
v -16.751356 65.000000 10.924805
v -12.381433 72.000000 5.098246
v -5.098236 72.500000 12.381445
v -10.196477 65.000000 -16.023031
v -4.369916 72.000000 -11.653111
v -11.653114 72.500000 -4.369911
v 16.023041 67.000000 -10.196475
v 10.924802 73.500000 -3.641594
v 3.641600 74.000000 -10.924793
v 10.560644 65.000000 16.387201
v 3.641604 73.000000 10.924805
v 10.924803 73.500000 3.641604
vt 0.396506 0.494236
vt 0.396506 0.494236
vt 0.396506 0.494236
vt 0.396506 0.494236
vt 0.396506 0.494236
vt 0.396506 0.494236
vt 0.396506 0.494236
vt 0.396506 0.494236
vt 0.396506 0.494236
vt 0.396506 0.494236
vt 0.396506 0.494236
vt 0.396506 0.494236
vt 0.396506 0.494236
vt 0.396506 0.494236
vt 0.396506 0.494236
vt 0.396506 0.494236
vt 0.396506 0.494236
vt 0.396506 0.494236
vt 0.396506 0.494236
vt 0.396506 0.494236
vt 0.396506 0.494236
vt 0.396506 0.494236
vt 0.396506 0.494236
vt 0.396506 0.494236
vt 0.396506 0.494236
vt 0.396506 0.494236
vt 0.396506 0.494236
vt 0.396506 0.494236
vt 0.396506 0.494236
vt 0.396506 0.494236
vt 0.396506 0.494236
vt 0.396506 0.494236
vt 0.396506 0.494236
vt 0.396506 0.494236
vt 0.396506 0.494236
vt 0.396506 0.494236
vt 0.396506 0.494236
vt 0.396506 0.494236
vt 0.396506 0.494236
vt 0.396506 0.494236
vt 0.396506 0.494236
vt 0.396506 0.494236
vt 0.396506 0.494236
vt 0.396506 0.494236
vt 0.396506 0.494236
vt 0.396506 0.494236
vt 0.396506 0.494236
vt 0.396506 0.494236
vt 0.396506 0.494236
vt 0.396506 0.494236
vt 0.396506 0.494236
vt 0.396506 0.494236
vt 0.396506 0.494236
vt 0.396506 0.494236
vt 0.396506 0.494236
vt 0.396506 0.494236
vt 0.396506 0.494236
vt 0.396506 0.494236
vt 0.396506 0.494236
vt 0.396506 0.494236
vt 0.396506 0.494236
vt 0.396506 0.494236
vt 0.396506 0.494236
vt 0.396506 0.494236
vt 0.396506 0.494236
vt 0.396506 0.494236
vt 0.396506 0.494236
vt 0.396506 0.494236
vt 0.396506 0.494236
vt 0.396506 0.494236
vt 0.396506 0.494236
vt 0.396506 0.494236
vt 0.396506 0.494236
vt 0.396506 0.494236
vt 0.396506 0.494236
vt 0.396506 0.494236
vt 0.396506 0.494236
vt 0.396506 0.494236
vt 0.396506 0.494236
vt 0.396506 0.494236
vt 0.396506 0.494236
vt 0.396506 0.494236
vt 0.396506 0.494236
vt 0.396506 0.494236
vt 0.396506 0.494236
vt 0.396506 0.494236
vt 0.396506 0.494236
vt 0.396506 0.494236
vt 0.396506 0.494236
vt 0.396506 0.494236
vt 0.396506 0.494236
vt 0.396506 0.494236
vt 0.396506 0.494236
vt 0.396506 0.494236
vt 0.396506 0.494236
vt 0.396506 0.494236
vn 0.0213 0.3507 -0.9362
vn 0.0441 0.9094 -0.4136
vn 0.0549 0.9049 -0.4219
vn 0.0380 0.7833 0.6204
vn -0.6523 -0.3329 0.6809
vn -0.5207 0.7199 0.4589
vn 0.1199 0.9750 -0.1869
vn -0.7018 -0.1955 -0.6850
vn -0.4589 0.7199 -0.5207
vn 0.1999 0.9707 0.1333
vn 0.6726 -0.2553 -0.6945
vn 0.4686 0.7871 -0.4010
vn -0.2377 0.9235 0.3011
vn 0.7066 -0.1317 0.6952
vn 0.4427 0.7401 0.5062
vn -0.2739 0.9387 -0.2094
vn -0.9243 0.3808 -0.0231
vn -0.2414 0.9693 -0.0470
vn -0.2499 0.9665 -0.0586
vn 0.7107 0.7027 -0.0341
vn 0.9783 0.2067 0.0125
vn 0.4031 0.9141 0.0444
vn 0.4097 0.9105 0.0552
vn -0.6546 0.7551 0.0367
vn -0.0213 0.3507 0.9362
vn -0.0427 0.8791 0.4747
vn -0.0530 0.8736 0.4837
vn -0.0406 0.8357 -0.5477
vn -0.5186 0.7146 0.4695
vn -0.4695 0.7146 -0.5186
vn 0.4665 0.7822 -0.4128
vn 0.4530 0.7356 0.5035
usemtl material_1_0
s 1
f 99/97/23 98/98/23 97/99/23
f 102/100/24 101/101/24 100/102/24
f 105/103/25 104/104/25 103/105/25
f 108/106/26 107/107/26 106/108/26
f 111/109/27 110/110/27 109/111/27
f 114/112/28 113/113/28 112/114/28
f 117/115/29 116/116/29 115/117/29
f 120/118/30 119/119/30 118/120/30
f 123/121/31 122/122/31 121/123/31
f 126/124/32 125/125/32 124/126/32
f 129/127/33 128/128/33 127/129/33
f 132/130/34 131/131/34 130/132/34
f 135/133/35 134/134/35 133/135/35
f 138/136/36 137/137/36 136/138/36
f 141/139/37 140/140/37 139/141/37
f 144/142/38 143/143/38 142/144/38
f 147/145/39 146/146/39 145/147/39
f 150/148/40 149/149/40 148/150/40
f 153/151/41 152/152/41 151/153/41
f 156/154/42 155/155/42 154/156/42
f 159/157/43 158/158/43 157/159/43
f 162/160/44 161/161/44 160/162/44
f 165/163/45 164/164/45 163/165/45
f 168/166/46 167/167/46 166/168/46
f 171/169/47 170/170/47 169/171/47
f 174/172/48 173/173/48 172/174/48
f 177/175/49 176/176/49 175/177/49
f 180/178/50 179/179/50 178/180/50
f 183/181/51 182/182/51 181/183/51
f 186/184/52 185/185/52 184/186/52
f 189/187/53 188/188/53 187/189/53
f 192/190/54 191/191/54 190/192/54
